# xmcd CD database file
#
# Track frame offsets:
#	150
#	6065
#	18397
#	34460
#	63082
#	67035
#	82367
#	83572
#	99295
#	100832
#	110780
#	113267
#	125302
#	136852
#	138370
#	148222
#	150537
#	160777
#	163215
#	180247
#
# Disc length: 2535 seconds
#
# Revision: 0
# Processed by: cddbd v1.5.2PL0 Copyright (c) Steve Scherf et al.
# Submitted via: CDex 1.51
#
DISCID=0209e514
DTITLE=Jon Larsen - Strange News From Mars
DYEAR=2007
DGENRE=Jazz
TTITLE0=Goodbye To Earth
TTITLE1=The Eons Are Closing
TTITLE2=Mutant Fromage
TTITLE3=Dachs Reduction
TTITLE4=A Windy Day On Mars
TTITLE5=Air Sculpting In Vacuum
TTITLE6=Strange News From Mars
TTITLE7=Cydonian Music
TTITLE8=Mars Under The Radar
TTITLE9=Cinderella On The Event Horizon Of A Black Hole
TTITLE10=The Quilt
TTITLE11=The Secret Word For Today
TTITLE12=Conseptual Continuity On The Red Planet
TTITLE13=Norwegisher Schweinhund
TTITLE14=Capt. Zurcon's Cranberry Cocktail
TTITLE15=Unwanted Sexual Attention In Space
TTITLE16=Optional Entertainment In Zero Gravitation
TTITLE17=Tax Churches
TTITLE18=Music Is The Best
TTITLE19=Untitled
EXTD=YEAR: 2007
EXTT0=
EXTT1=
EXTT2=
EXTT3=
EXTT4=
EXTT5=
EXTT6=
EXTT7=
EXTT8=
EXTT9=
EXTT10=
EXTT11=
EXTT12=
EXTT13=
EXTT14=
EXTT15=
EXTT16=
EXTT17=
EXTT18=
EXTT19=
PLAYORDER=
